# xmcd CD database file
#
# Track frame offsets:
#	150
#	12993
#	27993
#	44276
#	63243
#	79376
#	97013
#	114850
#	135690
#	147624
#	159105
#	176891
#	193766
#	205089
#	219492
#
# Disc length: 3123 seconds
#
# Revision: 0
# Processed by: cddbd v1.5.1PL0 Copyright (c) Steve Scherf et al.
# Submitted via: CDex 1.51
#
DISCID=d50c310f
DTITLE=Sanctuary 03 - A Day Remembered
DYEAR=2002
DGENRE=New Age
TTITLE0=Morning Glory
TTITLE1=To The Rising Sun
TTITLE2=Stream Of The Past
TTITLE3=Day Dreaming
TTITLE4=Laughter Of The Loon
TTITLE5=Listening Point
TTITLE6=The Rise Of The Surf
TTITLE7=Afternoon Hike
TTITLE8=Fantasy Lake
TTITLE9=Quiet Moments
TTITLE10=Woodland Echoes
TTITLE11=Celtic Rain
TTITLE12=Twilight Calm
TTITLE13=Evening Song
TTITLE14=A Day Remembered
EXTD=YEAR: 2002
EXTT0=
EXTT1=
EXTT2=
EXTT3=
EXTT4=
EXTT5=
EXTT6=
EXTT7=
EXTT8=
EXTT9=
EXTT10=
EXTT11=
EXTT12=
EXTT13=
EXTT14=
PLAYORDER=
